<?xml version="1.0" encoding="UTF-8"?><svg id="Layer_2" xmlns="http://www.w3.org/2000/svg" viewBox="0 0 397.00034 331.76763"><g><path d="M332.02325,256.5657c-.25195,.27246-1.42773,.81836-2.66699,.94434l-.14746-1.42773c1.70117-.39844,2.58301-.81836,3.19141-2.85547h1.38672v10.70801l1.67969,.25195v1.17578h-5.33398v-1.17578l1.89062-.25195v-7.36914Z" fill="#e0ced4"/><path d="M340.40216,254.86453l-.12695,2.75098c.4834-.04199,.83984-.06348,1.25977-.06348,3.82227,0,5.45898,1.70117,5.45898,4.2207,0,3.7998-3.8418,5.26953-7.55859,5.26953-.6084,0-1.1123-.04199-1.55273-.10449l.18848-1.55371c.31543,.04199,.73535,.08398,1.17578,.08398,2.30957,0,5.96289-.71387,5.96289-3.61133,0-1.67969-.92383-2.75098-3.98926-2.75098-.77734,0-1.57422,.08398-2.625,.20996l-.14648-.10449,.23047-5.94238h7.89453v1.5957h-6.17188Z" fill="#e0ced4"/></g><circle cx="352.70281" cy="248.62308" r="2.88247" fill="none" stroke="#e0ced4" stroke-miterlimit="10"/><g><path d="M301.79473,189.98562h-1.25977l-.14746-2.98242h8.83887v1.72266l-3.42188,3.27539c1.91016,.23047,4.03125,1.23828,4.03125,3.67383,0,3.7168-3.75781,5.10156-7.85254,5.10156-.6084,0-1.1123-.04102-1.55371-.10449l.18945-1.55371c.31445,.04199,.73438,.08398,1.17578,.08398,2.6875,0,6.25586-.65039,6.25586-3.48535,0-1.46973-1.28027-2.43555-4.55566-2.43555v-1.0918l3.65332-3.63184h-5.08105l-.27246,1.42773Z" fill="#e0ced4"/><path d="M323.71661,193.42898c0,3.42188-1.97461,6.00391-5.69043,6.00391s-5.69043-2.58203-5.69043-6.00391c0-3.46484,2.35156-6.76172,5.69043-6.76172,3.31738,0,5.69043,3.29688,5.69043,6.76172Zm-1.78516,0c0-2.33105-1.32227-5.14453-3.90527-5.14453-2.56152,0-3.90527,2.81348-3.90527,5.14453,0,2.37207,1.21777,4.47168,3.90527,4.47168,2.66699,0,3.90527-2.09961,3.90527-4.47168Z" fill="#e0ced4"/></g><circle cx="328.05594" cy="184.00973" r="2.88247" fill="none" stroke="#e0ced4" stroke-miterlimit="10"/><g><path d="M203.19317,83.80496l-.23145,1.55371c-.27246-.04199-.71387-.08398-1.13379-.08398-1.86914,0-3.52734,.73438-4.47266,2.37305-.50391,.88086-.62891,1.32227-.75586,1.97266,.12695-.16797,.79883-.77637,1.5332-1.04883,.62988-.23145,1.42773-.41992,2.45703-.41992,2.64453,0,4.95508,1.7207,4.95508,4.70312,0,3.06445-2.35156,4.93359-5.22852,4.93359-3.63281,0-5.56445-2.43555-5.56445-6.21484,0-5.60547,3.48633-7.89453,6.88672-7.89453,.60938,0,1.13477,.04199,1.55469,.12598Zm-6.65625,7.30664v.46191c0,2.47754,.92383,4.70312,3.7793,4.70312,1.95312,0,3.44336-1.28125,3.44336-3.29688,0-2.07812-1.34375-3.23242-3.44336-3.23242-1.72168,0-3.12891,.67188-3.7793,1.36426Z" fill="#e0ced4"/><path d="M219.19415,91.78347c0,3.42285-1.97363,6.00488-5.69043,6.00488-3.71582,0-5.68945-2.58203-5.68945-6.00488,0-3.46387,2.35156-6.76074,5.68945-6.76074,3.31836,0,5.69043,3.29688,5.69043,6.76074Zm-1.78418,0c0-2.33105-1.32324-5.14355-3.90625-5.14355-2.56055,0-3.9043,2.8125-3.9043,5.14355,0,2.37207,1.2168,4.47168,3.9043,4.47168,2.66699,0,3.90625-2.09961,3.90625-4.47168Z" fill="#e0ced4"/></g><circle cx="221.78732" cy="80.79409" r="2.88247" fill="none" stroke="#e0ced4" stroke-miterlimit="10"/><g><path d="M129.16192,65.20828c0-3.92676,5.22852-11.27539,5.66992-11.88477h-6.67773l-.27246,1.30273h-1.25977l-.12598-2.85547h10.18359v1.63672c-.86133,1.21875-5.375,7.55859-5.79492,11.80078h-1.72266Z" fill="#e0ced4"/><path d="M141.08966,53.36648l-.125,2.75c.48242-.04199,.83984-.0625,1.25977-.0625,3.82031,0,5.45898,1.7002,5.45898,4.21973,0,3.7998-3.84277,5.27051-7.55859,5.27051-.60938,0-1.11328-.04297-1.55469-.10547l.18945-1.55371c.31445,.04199,.73438,.08398,1.17578,.08398,2.30957,0,5.96289-.71387,5.96289-3.61133,0-1.67969-.92383-2.75098-3.98926-2.75098-.77637,0-1.5752,.08398-2.62402,.21094l-.14746-.10547,.23145-5.94141h7.89453v1.5957h-6.17383Z" fill="#e0ced4"/></g><circle cx="155.29258" cy="47.64855" r="2.88247" fill="none" stroke="#e0ced4" stroke-miterlimit="10"/><g><path d="M59.35723,33.82937l.5957-3.60547c1.11914,.24512,1.83789,.28027,2.58984,.28027,2.13477,0,4.23535-.59473,5.81055-1.85547,1.43555-1.15527,2.66016-3.00977,2.97559-5.18066-1.50488,2.27539-4.06055,2.97559-6.89551,2.97559-3.99023,0-8.12109-2.66016-8.12109-7.66602,0-5.0752,4.33984-8.68066,9.20508-8.68066,6.54688,0,9.90625,4.41016,9.90625,10.67578,0,9.66113-6.19531,13.40625-12.60059,13.40625-1.08496,0-2.24023-.10449-3.46582-.34961Zm11.5166-13.0918v-.41992c0-3.25488-1.22559-6.51074-5.49512-6.51074-2.52148,0-4.48047,2.20605-4.48047,4.7959,0,2.66016,1.64453,4.16504,4.68945,4.16504,2.10059,0,4.37598-1.01465,5.28613-2.03027Z" fill="#e0ced4"/><path d="M99.43341,21.5784c0,5.45996-3.46484,10.08105-10.2207,10.08105s-10.2207-4.62109-10.2207-10.08105c0-5.56543,3.99023-11.48145,10.2207-11.48145,6.19531,0,10.2207,5.91602,10.2207,11.48145Zm-4.58496,.03516c0-3.64062-2.03027-7.80664-5.63574-7.80664-3.57031,0-5.63477,4.16602-5.63477,7.80664,0,3.6748,1.85449,6.40527,5.63477,6.40527,3.74609,0,5.63574-2.73047,5.63574-6.40527Z" fill="#e0ced4"/></g><path d="M386.00079,321.6409c0,5.45996-3.46582,10.08105-10.22168,10.08105-6.75488,0-10.2207-4.62109-10.2207-10.08105,0-5.56543,3.99023-11.48145,10.2207-11.48145,6.19629,0,10.22168,5.91602,10.22168,11.48145Zm-4.58496,.03516c0-3.64062-2.03125-7.80566-5.63672-7.80566-3.57031,0-5.63477,4.16504-5.63477,7.80566,0,3.6748,1.85547,6.40527,5.63477,6.40527,3.74609,0,5.63672-2.73047,5.63672-6.40527Z" fill="#e0ced4"/><circle cx="103.74104" cy="5.79" r="4.30965" fill="none" stroke="#e0ced4" stroke-miterlimit="10" stroke-width="2"/><g><path d="M284.91583,109.9866h-11.44629c-.10449-.7002-.1748-1.39941-.1748-1.9248,0-7.94629,9.27539-15.22656,11.93555-16.3125h4.16602v14.63184h3.29102v3.60547h-3.29102v5.35547h-4.48047v-5.35547Zm0-10.39551c0-1.01562,.10547-2.55566,.20996-3.39648-.66504,.49023-1.29492,1.01562-2.625,2.31055-2.24023,2.16992-4.44629,5.32031-4.44629,7.87598h6.86133v-6.79004Z" fill="#e0ced4"/><path d="M301.61016,95.63504l-.13965,3.39551c.31445-.01758,.98047-.03516,1.43555-.03516,6.61523,0,9.87109,2.73047,9.87109,7.24609,0,6.51074-6.86133,9.10059-13.37207,9.10059-1.12012,0-2.27539-.10449-3.46582-.28027l.45508-3.60547c.82324,.12305,1.9082,.24609,2.69531,.24609,3.53516,0,9.13672-1.08594,9.13672-5.32129,0-2.37988-1.43555-3.81543-5.91602-3.81543-1.15527,0-3.11523,.07031-4.86523,.28027l-.56055-.31543,.45508-10.71094h14.73633v3.81543h-10.46582Z" fill="#e0ced4"/></g><circle cx="320.86382" cy="86.95296" r="4.30965" fill="none" stroke="#e0ced4" stroke-miterlimit="10" stroke-width="2"/><circle cx="390.30772" cy="306.83219" r="4.30965" fill="none" stroke="#e0ced4" stroke-miterlimit="10" stroke-width="2"/><g><rect x="98.97112" y="282.40434" width="4.81527" height="24.34441" transform="translate(-35.23117 574.55997) rotate(-135.00031)" fill="#e0ced4"/><rect x="122.23722" y="259.138" width="4.81527" height="24.34441" transform="translate(20.93832 551.29328) rotate(-135.00031)" fill="#e0ced4"/><rect x="75.70416" y="305.66982" width="4.81527" height="24.34441" transform="translate(-91.40153 597.82458) rotate(-135.00031)" fill="#e0ced4"/><rect x="145.50336" y="235.87171" width="4.81527" height="24.34441" transform="translate(77.10786 528.0267) rotate(-135.00031)" fill="#e0ced4"/><rect x="168.76945" y="212.60537" width="4.81527" height="24.34441" transform="translate(133.27736 504.76002) rotate(-135.00031)" fill="#e0ced4"/><rect x="192.03544" y="189.33893" width="4.81527" height="24.34441" transform="translate(189.44674 481.49306) rotate(-135.00031)" fill="#e0ced4"/><rect x="215.30154" y="166.07259" width="4.81527" height="24.34441" transform="translate(245.61624 458.22638) rotate(-135.00031)" fill="#e0ced4"/><rect x="238.56768" y="142.8063" width="4.81527" height="24.34441" transform="translate(301.78578 434.9598) rotate(-135.00031)" fill="#e0ced4"/><path d="M274.55084,124.80749l-3.40502-3.40489c-9.31061,3.81998-18.94702,.00008-18.94702,.00008l.00002,3.74767s6.38898,2.53184,13.78902,1.41048l-12.05592,12.05602,3.40502,3.40479,12.05551-12.05582c-1.12099,7.39985,1.4106,13.7888,1.4106,13.7888l3.74787-.00002s-3.81999-9.63637-.00008-18.94712Z" fill="#e0ced4"/></g><g><rect x="70.86393" y="295.41112" width="4.81527" height="24.34441" transform="translate(64.62999 623.65538) rotate(-165.03479)" fill="#e0ced4"/><rect x="79.36067" y="263.62371" width="4.81527" height="24.34441" transform="translate(89.54381 563.35284) rotate(-165.03479)" fill="#e0ced4"/><rect x="87.85746" y="231.83632" width="4.81527" height="24.34441" transform="translate(114.45774 503.05034) rotate(-165.03479)" fill="#e0ced4"/><rect x="96.3542" y="200.04892" width="4.81527" height="24.34441" transform="translate(139.37157 442.7478) rotate(-165.03479)" fill="#e0ced4"/><rect x="104.85078" y="168.26147" width="4.81527" height="24.34441" transform="translate(164.28511 382.44515) rotate(-165.03479)" fill="#e0ced4"/><rect x="113.34752" y="136.47406" width="4.81527" height="24.34441" transform="translate(189.19893 322.14261) rotate(-165.03479)" fill="#e0ced4"/><rect x="121.84431" y="104.68667" width="4.81527" height="24.34441" transform="translate(214.11286 261.84011) rotate(-165.03479)" fill="#e0ced4"/><path d="M138.21787,73.93384l-4.65203-1.24341c-6.14844,7.96721-16.40285,9.48345-16.40285,9.48345l1.8758,3.24444s6.79833-1.00594,12.64347-5.68061l-4.40281,16.47143,4.65198,1.24332,4.40256-16.47105c2.73331,6.96731,8.12278,11.23127,8.12278,11.23127l3.24461-1.8759s-8.13026-6.43046-9.4835-16.40294Z" fill="#e0ced4"/></g><g><rect x="73.56237" y="301.42718" width="4.81527" height="24.34441" transform="translate(-14.92165 623.20353) rotate(-150.02148)" fill="#e0ced4"/><rect x="90.0034" y="272.92584" width="4.81527" height="24.34441" transform="translate(30.00221 578.22914) rotate(-150.02148)" fill="#e0ced4"/><rect x="106.44448" y="244.42453" width="4.81527" height="24.34441" transform="translate(74.92616 533.25483) rotate(-150.02148)" fill="#e0ced4"/><rect x="122.8855" y="215.92319" width="4.81527" height="24.34441" transform="translate(119.85002 488.28043) rotate(-150.02148)" fill="#e0ced4"/><rect x="139.32639" y="187.42178" width="4.81527" height="24.34441" transform="translate(164.77368 443.30583) rotate(-150.02148)" fill="#e0ced4"/><rect x="155.76741" y="158.92044" width="4.81527" height="24.34441" transform="translate(209.69754 398.33144) rotate(-150.02148)" fill="#e0ced4"/><rect x="172.20849" y="130.41913" width="4.81527" height="24.34441" transform="translate(254.62149 353.35713) rotate(-150.02148)" fill="#e0ced4"/><path d="M199.22478,104.74929l-4.17114-2.40605c-8.00242,6.10254-18.29958,4.91069-18.29958,4.91069l.97132,3.6196s6.82686,.78946,13.68341-2.2115l-8.51934,14.76867,4.17111,2.40595,8.519-14.76837c.83518,7.43753,4.93613,12.95205,4.93613,12.95205l3.6198-.97137s-6.18697-8.31705-4.91072-18.29968Z" fill="#e0ced4"/></g><g><rect x="81.94844" y="310.08025" width="4.81527" height="24.34441" transform="translate(-205.78755 485.89618) rotate(-104.75423)" fill="#e0ced4"/><rect x="113.76692" y="301.70065" width="4.81527" height="24.34441" transform="translate(-157.76244 506.15185) rotate(-104.75423)" fill="#e0ced4"/><rect x="145.58542" y="293.3211" width="4.81527" height="24.34441" transform="translate(-109.73737 526.40761) rotate(-104.75423)" fill="#e0ced4"/><rect x="177.4039" y="284.94149" width="4.81527" height="24.34441" transform="translate(-61.71226 546.66327) rotate(-104.75423)" fill="#e0ced4"/><rect x="209.22235" y="276.56173" width="4.81527" height="24.34441" transform="translate(-13.68705 566.91871) rotate(-104.75423)" fill="#e0ced4"/><rect x="241.04083" y="268.18212" width="4.81527" height="24.34441" transform="translate(34.33806 587.17437) rotate(-104.75423)" fill="#e0ced4"/><rect x="272.85933" y="259.80257" width="4.81527" height="24.34441" transform="translate(82.36313 607.43013) rotate(-104.75423)" fill="#e0ced4"/><path d="M319.46944,262.82344l-1.2264-4.65654c-9.96734-1.38992-16.3678-9.54382-16.3678-9.54382l-1.88774,3.2375s4.24392,5.4054,11.20144,8.16421l-16.48754,4.34209,1.22645,4.65645,16.48709-4.34212c-4.6958,5.82785-5.72705,12.62227-5.72705,12.62227l3.23768,1.88784s1.55401-10.24876,9.54387-16.36789Z" fill="#e0ced4"/></g><g><rect x="78.80098" y="307.7922" width="4.81527" height="24.34441" transform="translate(-154.88953 550.68009) rotate(-120.09814)" fill="#e0ced4"/><rect x="107.26794" y="291.29173" width="4.81527" height="24.34441" transform="translate(-97.8712 550.5336) rotate(-120.09814)" fill="#e0ced4"/><rect x="135.73493" y="274.7913" width="4.81527" height="24.34441" transform="translate(-40.85287 550.38723) rotate(-120.09814)" fill="#e0ced4"/><rect x="164.20189" y="258.29083" width="4.81527" height="24.34441" transform="translate(16.16546 550.24074) rotate(-120.09814)" fill="#e0ced4"/><rect x="192.66878" y="241.79022" width="4.81527" height="24.34441" transform="translate(73.18379 550.09399) rotate(-120.09814)" fill="#e0ced4"/><rect x="221.13574" y="225.28974" width="4.81527" height="24.34441" transform="translate(130.20212 549.9475) rotate(-120.09814)" fill="#e0ced4"/><rect x="249.60273" y="208.78932" width="4.81527" height="24.34441" transform="translate(187.22045 549.80113) rotate(-120.09814)" fill="#e0ced4"/><path d="M292.21569,200.43987l-2.41486-4.16604c-9.97984,1.2971-18.30978-4.87251-18.30978-4.87251l-.96377,3.62162s5.52298,4.08973,12.96251,4.90915l-14.75087,8.55012,2.41489,4.16594,14.75043-8.55003c-2.9863,6.86268-2.1829,13.6878-2.1829,13.6878l3.62182,.96382s-1.21333-10.29465,4.87254-18.30988Z" fill="#e0ced4"/></g><polygon points="335.20245 313.34988 82.60431 313.34988 82.60431 60.75125 75.20294 40.31082 67.80255 60.75125 67.80255 313.34988 67.80255 328.15164 82.60431 328.15164 335.20245 328.15164 355.64337 320.75076 335.20245 313.34988" fill="#e0ced4"/><path d="M46.86279,289.00835l4.8623-4.86255-20.00586-20.00586c3.06543-1.97681,5.1001-5.41431,5.1001-9.33325,0-6.13379-4.97217-11.10645-11.10596-11.10645-6.13428,0-11.10645,4.97266-11.10645,11.10645,0,3.99683,2.11816,7.48999,5.28613,9.44629L0,284.1458l4.86279,4.86255,16.25439-16.25488v29.02002l-12.48682,24.91284,6.14746,3.0813,11-21.9458,11,21.9458,6.14746-3.0813-12.61621-25.17065v-29.06128l16.55371,16.55396Z" fill="#464e99"/></svg>