<?xml version="1.0" encoding="UTF-8"?><svg id="Layer_2" xmlns="http://www.w3.org/2000/svg" viewBox="0 0 440.49805 400.16309"><path d="M243.42578,4.31348V0h13.72266V4.31348l-3.67578,.88184V31.75977h-7.10645l-13.96777-18.9668c-.83398-1.12793-2.74414-4.26465-4.26367-7.00977,.3916,3.13672,.73438,6.8125,.73438,8.18555v12.5957l3.67578,.88281v4.3125h-13.72266v-4.3125l3.67578-.88281V5.19531l-3.67578-.88184V0h11.86035l12.88965,17.69336c.90723,1.22559,2.69629,4.3125,4.11719,7.05762-.34277-3.13672-.58789-6.7627-.58789-8.13574V5.19531l-3.67578-.88184Z" fill="#e0ced4"/><path d="M422.07031,191.92383v7.40039h11.71289v5.48926h-11.71289v7.89062h13.625l.58789-2.94043h4.70508l.49023,8.42969h-29.65234v-4.3125l3.67578-.88281v-21.36816l-3.67578-.88281v-4.3125h29.16211l-.49023,8.42969h-4.70508l-.58789-2.94043h-13.13477Z" fill="#e0ced4"/><path d="M230.58789,393.64453c1.07812,.58789,3.52734,1.27441,5.88086,1.27441,3.47949,0,8.08594-.3916,8.08594-4.11719,0-2.84277-4.70508-3.9209-8.82129-4.80273-5.19531-1.12793-12.10645-2.59766-12.10645-9.50879,0-6.61621,6.91113-9.6543,13.625-9.6543,7.05859,0,13.18457,2.94043,13.18457,7.25293,0,2.40137-1.61719,4.31348-4.11621,4.31348-2.64648,0-3.9707-1.86328-3.9707-3.48047,0-.7832,.19629-1.32227,.53906-1.76367-.98047-.53906-2.8418-.98047-5.53809-.98047-4.01855,0-7.25293,1.42188-7.25293,4.16602,0,2.64648,4.3125,3.62695,8.47852,4.50879,5.24414,1.12793,12.44922,3.18652,12.44922,10.04785,0,5.73438-5.19531,9.2627-14.11523,9.2627-6.51953,0-13.72363-2.64648-13.72363-7.40137,0-2.74414,1.91113-4.36133,4.21484-4.36133,2.74512,0,3.82324,2.00977,3.82324,3.48047,0,.63672-.29492,1.37109-.63672,1.76367Z" fill="#e0ced4"/><path d="M18.18359,215.81836h-6.17578l-8.87109-26.66211-3.13672-.88281v-4.3125H12.93945v4.3125l-2.89258,.88281,3.9209,12.93848c.39258,1.32324,1.12793,4.75391,1.56836,7.69434,.6377-2.8418,1.56836-6.22461,2.1084-7.54688l4.85156-11.95898h6.22461l4.65625,11.90918c.51367,1.34863,1.37207,4.70508,1.91113,7.54785,.53906-2.94043,1.32324-6.29785,1.76465-7.69531l4.11719-12.88867-2.89258-.88281v-4.3125h12.49805v4.3125l-3.13672,.88281-9.36133,26.66211h-6.17578l-4.94922-12.98828c-.49023-1.32422-1.32422-4.31348-1.76465-6.71484-.49023,2.35254-1.37207,5.39062-1.95996,6.8125l-5.24414,12.89062Z" fill="#e0ced4"/><polygon points="318.38715 126.62131 309.58426 131.31205 299.06073 141.83558 294.37005 150.63841 303.17288 145.94774 313.69642 135.4242 318.38715 126.62131" fill="#e0ced4"/><polygon points="149.73333 125.50513 154.42407 134.30802 164.9476 144.83155 173.75043 149.52223 169.05976 140.7194 158.53622 130.19586 149.73333 125.50513" fill="#e0ced4"/><polygon points="292.66793 257.92344 297.35866 266.72633 307.88219 277.24986 316.68502 281.94054 311.99435 273.13771 301.47081 262.61417 292.66793 257.92344" fill="#e0ced4"/><polygon points="176.64405 259.60554 167.84116 264.29627 157.31763 274.81981 152.62695 283.62263 161.42978 278.93196 171.95332 268.40842 176.64405 259.60554" fill="#e0ced4"/><circle cx="234.06025" cy="202.52991" r="97.2766" fill="none" stroke="#e0ced4" stroke-miterlimit="10" stroke-width="7"/><polygon points="234.06024 81.593 228.57245 95.61546 228.57245 117.48741 234.06024 131.50975 239.54804 117.48741 239.54804 95.61546 234.06024 81.593" fill="#e0ced4"/><polygon points="147.71942 197.04222 125.84784 197.04222 111.82538 202.52989 125.84784 208.01756 147.71942 208.01756 161.74188 202.52989 147.71942 197.04222" fill="#e0ced4"/><polygon points="234.06024 274.84813 228.57245 288.87047 228.57245 310.74254 234.06024 324.76488 239.54804 310.74254 239.54804 288.87047 234.06024 274.84813" fill="#e0ced4"/><polygon points="342.27264 197.04222 320.40106 197.04222 306.3786 202.52989 320.40106 208.01756 342.27264 208.01756 356.29511 202.52989 342.27264 197.04222" fill="#e0ced4"/><path d="M231.85742,55.71484l-5.25195,19.89062h-1.95117l5.25195-19.89062h1.95117Z" fill="#e0ced4"/><path d="M208.75684,67.33496c0,4.23828-2.44434,7.43652-7.0459,7.43652-4.60254,0-7.04688-3.19824-7.04688-7.43652,0-4.29004,2.91211-8.37207,7.04688-8.37207,4.10742,0,7.0459,4.08203,7.0459,8.37207Zm-2.20996,0c0-2.88574-1.63867-6.37012-4.83594-6.37012-3.17188,0-4.83594,3.48438-4.83594,6.37012,0,2.93848,1.50781,5.53809,4.83594,5.53809,3.30176,0,4.83594-2.59961,4.83594-5.53809Z" fill="#e0ced4"/><g><path d="M331.33691,121.71777h-8.47656c-.05176-.3125-.07715-.67676-.07715-1.01465,0-5.6416,6.81152-11.12793,8.70996-11.9082h2.02832v11.02441h2.44336v1.89844h-2.44336v4.18555h-2.18457v-4.18555Zm0-10.50488c-1.74219,.80566-6.2666,5.38184-6.2666,8.60645h6.2666v-8.60645Z" fill="#e0ced4"/><path d="M341.81445,110.82324l-.15625,3.40625c.59766-.05273,1.04004-.07812,1.56055-.07812,4.73242,0,6.75977,2.10547,6.75977,5.22559,0,4.70605-4.75781,6.52637-9.36035,6.52637-.75391,0-1.37793-.05176-1.92383-.12988l.2334-1.92383c.39062,.05176,.91016,.10352,1.45703,.10352,2.85938,0,7.38379-.88379,7.38379-4.47168,0-2.08008-1.14355-3.40625-4.94043-3.40625-.96191,0-1.94922,.10352-3.25,.25977l-.18164-.12988,.28613-7.3584h9.77637v1.97656h-7.64453Z" fill="#e0ced4"/></g><g><path d="M321.85938,291.14258c-.3125,.33789-1.76855,1.01367-3.30273,1.16992l-.18164-1.76758c2.10547-.49414,3.19727-1.01465,3.95117-3.53711h1.7168v13.26074l2.08008,.31152v1.45703h-6.60449v-1.45703l2.34082-.31152v-9.12598Z" fill="#e0ced4"/><path d="M330.88086,290.75195h-1.56055l-.18164-3.69141h10.94629v2.13086l-4.23828,4.05664c2.36621,.28613,4.99219,1.53418,4.99219,4.55078,0,4.60156-4.6543,6.31836-9.72461,6.31836-.75391,0-1.37793-.05273-1.92383-.13086l.2334-1.92383c.39062,.05273,.91016,.10352,1.45703,.10352,3.32812,0,7.74805-.80469,7.74805-4.31543,0-1.82031-1.58594-3.0166-5.64258-3.0166v-1.35156l4.52441-4.49805h-6.29199l-.33789,1.76758Z" fill="#e0ced4"/><path d="M346.81836,289.03613l-.15625,3.40625c.59766-.05176,1.04004-.07812,1.56055-.07812,4.73242,0,6.75977,2.10645,6.75977,5.22559,0,4.70703-4.75781,6.52734-9.36035,6.52734-.75391,0-1.37793-.05273-1.92383-.13086l.2334-1.92383c.39062,.05273,.91016,.10352,1.45703,.10352,2.85938,0,7.38379-.88281,7.38379-4.47168,0-2.08008-1.14355-3.40527-4.94043-3.40527-.96191,0-1.94922,.10352-3.25,.25977l-.18164-.13086,.28613-7.35742h9.77637v1.97559h-7.64453Z" fill="#e0ced4"/></g><g><path d="M216.2207,339.07812c-.3125,.33789-1.76758,1.01367-3.30273,1.16992l-.18164-1.76758c2.10547-.49414,3.19824-1.01465,3.95215-3.53613h1.71582v13.25977l2.08008,.3125v1.45605h-6.60352v-1.45605l2.33984-.3125v-9.12598Z" fill="#e0ced4"/><path d="M226.98438,340.2998c-1.01367-.62402-1.89844-1.61133-1.89844-3.14551,0-2.13281,2.05469-4.23828,5.35645-4.23828,3.43262,0,5.30371,2.10547,5.30371,4.16016,0,1.2998-.70117,2.65234-1.79297,3.43164,1.74219,.67676,3.19727,2.13281,3.19727,4.52441,0,2.86035-2.00195,5.35645-6.70801,5.35645-4.36816,0-6.76074-2.18457-6.76074-4.9668,0-2.49609,1.50781-4.05566,3.30273-5.12207Zm7.92969,4.75879c0-2.44434-2.33984-2.99023-4.73242-3.58887l-1.01367-.25977c-2.18359,.80664-3.25,2.4707-3.25,4.1084,0,1.89844,1.74219,3.14648,4.52441,3.14648,3.22363,0,4.47168-1.50879,4.47168-3.40625Zm-3.50977-5.22656l.39062,.07812c1.29883-.65039,1.79297-1.66406,1.79297-2.7041,0-1.45605-1.24805-2.33984-3.14551-2.33984-2.00195,0-3.17285,.93555-3.17285,2.20996,0,1.9502,1.89844,2.31348,4.13477,2.75586Z" fill="#e0ced4"/><path d="M254.23242,342.95215c0,4.23828-2.44434,7.43652-7.04688,7.43652-4.60156,0-7.0459-3.19824-7.0459-7.43652,0-4.29004,2.91211-8.37207,7.0459-8.37207,4.10938,0,7.04688,4.08203,7.04688,8.37207Zm-2.21094,0c0-2.88574-1.63672-6.37012-4.83594-6.37012-3.17188,0-4.83594,3.48438-4.83594,6.37012,0,2.93848,1.50781,5.53809,4.83594,5.53809,3.30273,0,4.83594-2.59961,4.83594-5.53809Z" fill="#e0ced4"/></g><g><path d="M118.24219,297.26562l-1.92383,.44141c-.18164-.5459-.25977-.93555-.25977-1.42969,0-2.49609,2.65234-4.39453,5.53809-4.39453,3.58789,0,5.69434,1.9502,5.69434,4.26367,0,1.7168-1.11816,2.88672-2.93848,3.95312l-3.45801,2.02734c-1.37793,.80664-2.86035,1.8457-2.86035,3.04297,0,.05078,0,.12891,.02637,.20703h7.33203l.3125-1.2998h1.55957l.10449,3.19824h-11.41504c-.10449-.44141-.18164-.88379-.18164-1.2998,0-2.44434,1.53418-3.96582,3.63965-5.22656l2.83398-1.69043c2.10645-1.24805,2.80859-1.76758,2.80859-2.91211,0-.75391-.67578-2.28711-3.45801-2.28711-2.41895,0-3.45801,1.45508-3.45801,2.625,0,.26074,.02539,.46875,.10352,.78125Z" fill="#e0ced4"/><path d="M133.71191,297.26562l-1.92383,.44141c-.18262-.5459-.26074-.93555-.26074-1.42969,0-2.49609,2.65234-4.39453,5.53906-4.39453,3.58789,0,5.69336,1.9502,5.69336,4.26367,0,1.7168-1.11719,2.88672-2.9375,3.95312l-3.45801,2.02734c-1.37793,.80664-2.86035,1.8457-2.86035,3.04297,0,.05078,0,.12891,.02637,.20703h7.33203l.31152-1.2998h1.56055l.10352,3.19824h-11.41406c-.10352-.44141-.18164-.88379-.18164-1.2998,0-2.44434,1.5332-3.96582,3.63965-5.22656l2.83496-1.69043c2.10547-1.24805,2.80762-1.76758,2.80762-2.91211,0-.75391-.67676-2.28711-3.45801-2.28711-2.41797,0-3.45898,1.45508-3.45898,2.625,0,.26074,.02637,.46875,.10449,.78125Z" fill="#e0ced4"/><path d="M149.25977,294.27539l-.15625,3.40625c.59766-.05273,1.04004-.07812,1.56055-.07812,4.73242,0,6.75977,2.10547,6.75977,5.22559,0,4.70605-4.75781,6.52637-9.36035,6.52637-.75391,0-1.37793-.05176-1.92383-.12988l.2334-1.9248c.39062,.05273,.91016,.10449,1.45703,.10449,2.85938,0,7.38379-.88379,7.38379-4.47168,0-2.08008-1.14355-3.40625-4.94043-3.40625-.96191,0-1.94922,.10352-3.25,.25977l-.18164-.12988,.28613-7.3584h9.77637v1.97656h-7.64453Z" fill="#e0ced4"/></g><g><path d="M65.35742,199.60059l-1.92383,.44141c-.18164-.5459-.25977-.93555-.25977-1.42969,0-2.49609,2.65234-4.39453,5.53906-4.39453,3.58789,0,5.69336,1.9502,5.69336,4.26465,0,1.71582-1.11719,2.88574-2.9375,3.95215l-3.45898,2.02734c-1.37695,.80664-2.85938,1.84668-2.85938,3.04297,0,.05176,0,.12988,.02539,.20801h7.33203l.3125-1.30078h1.56055l.10352,3.19824h-11.41406c-.10449-.44141-.18164-.88379-.18164-1.2998,0-2.44434,1.5332-3.96484,3.63867-5.22656l2.83496-1.68945c2.10645-1.24805,2.80762-1.76855,2.80762-2.91211,0-.75391-.67578-2.28809-3.45703-2.28809-2.41895,0-3.45898,1.45605-3.45898,2.62598,0,.25977,.02539,.46777,.10352,.78027Z" fill="#e0ced4"/><path d="M80.64648,211.27441c0-4.8623,6.47363-13.96191,7.01953-14.7168h-8.26758l-.33887,1.6123h-1.55957l-.15625-3.53613h12.61035v2.02832c-1.06543,1.50781-6.65625,9.36035-7.17676,14.6123h-2.13086Z" fill="#e0ced4"/><path d="M106.62012,202.58984c0,4.23828-2.44434,7.43652-7.0459,7.43652-4.60254,0-7.04688-3.19824-7.04688-7.43652,0-4.29004,2.91211-8.37207,7.04688-8.37207,4.10742,0,7.0459,4.08203,7.0459,8.37207Zm-2.20996,0c0-2.88574-1.63867-6.37012-4.83594-6.37012-3.17188,0-4.83594,3.48438-4.83594,6.37012,0,2.93848,1.50781,5.53906,4.83594,5.53906,3.30176,0,4.83594-2.60059,4.83594-5.53906Z" fill="#e0ced4"/></g><g><path d="M115.69531,105.79102h-1.56055l-.18164-3.69336h10.94629v2.13281l-4.23828,4.05664c2.36621,.28516,4.99219,1.5332,4.99219,4.54883,0,4.60352-4.6543,6.31836-9.72461,6.31836-.75391,0-1.37793-.05078-1.92383-.12891l.2334-1.9248c.39062,.05176,.91016,.10449,1.45703,.10449,3.32812,0,7.74805-.80664,7.74805-4.31641,0-1.82031-1.58594-3.01562-5.64258-3.01562v-1.35254l4.52441-4.49902h-6.29199l-.33789,1.76953Z" fill="#e0ced4"/><path d="M132.43945,106.17969c-.3125,.33789-1.76855,1.01465-3.30273,1.16992l-.18164-1.76758c2.10547-.49414,3.19727-1.01367,3.95117-3.53516h1.7168v13.25977l2.08008,.3125v1.45508h-6.60449v-1.45508l2.34082-.3125v-9.12695Z" fill="#e0ced4"/><path d="M142.8125,104.07422l-.15625,3.40625c.59766-.05273,1.04004-.07812,1.56055-.07812,4.73242,0,6.75977,2.10547,6.75977,5.22656,0,4.70508-4.75781,6.52539-9.36035,6.52539-.75391,0-1.37793-.05078-1.92383-.12891l.2334-1.9248c.39062,.05176,.91016,.10449,1.45703,.10449,2.85938,0,7.38379-.88477,7.38379-4.47266,0-2.08008-1.14355-3.40625-4.94043-3.40625-.96191,0-1.94922,.10352-3.25,.25977l-.18164-.12891,.28613-7.35938h9.77637v1.97656h-7.64453Z" fill="#e0ced4"/></g><circle cx="211.57245" cy="57.30015" r="3.06383" fill="none" stroke="#e0ced4" stroke-miterlimit="10"/><g><path d="M362.90234,214.08789l.3125-1.89844c.39062,.07812,.88379,.07812,1.4043,.07812,3.19727,0,6.13574-1.45605,6.55176-5.22559-.67578,.5459-2.15723,1.40332-4.70605,1.40332-3.35352,0-5.87695-1.92383-5.87695-5.58984s2.96484-6.08398,6.26758-6.08398c4.47168,0,6.75977,3.12012,6.75977,7.72168,0,7.07227-4.3418,9.75098-8.78906,9.75098-.72754,0-1.37695-.05176-1.92383-.15625Zm8.47656-9.23047v-.36426c0-2.88574-.98828-5.77148-4.52344-5.77148-2.23633,0-4.05664,1.71582-4.05664,4.03027,0,2.46973,1.48242,3.74414,3.82227,3.74414,2.13184,0,3.95117-.75488,4.75781-1.63867Z" fill="#e0ced4"/><path d="M390.93164,205.14355c0,4.23828-2.44531,7.43652-7.04688,7.43652s-7.04688-3.19824-7.04688-7.43652c0-4.29004,2.91211-8.37207,7.04688-8.37207,4.10742,0,7.04688,4.08203,7.04688,8.37207Zm-2.21094,0c0-2.88574-1.6377-6.37012-4.83594-6.37012-3.17188,0-4.83594,3.48438-4.83594,6.37012,0,2.93848,1.50781,5.53809,4.83594,5.53809,3.30273,0,4.83594-2.59961,4.83594-5.53809Z" fill="#e0ced4"/></g><circle cx="393.99427" cy="194.37741" r="3.06383" fill="none" stroke="#e0ced4" stroke-miterlimit="10"/><g><path d="M242.56445,62.07227h-1.56055l-.18164-3.69336h10.94629v2.13281l-4.23828,4.05664c2.36621,.28516,4.99219,1.5332,4.99219,4.54883,0,4.60352-4.6543,6.31836-9.72461,6.31836-.75391,0-1.37793-.05078-1.92383-.12891l.2334-1.9248c.39062,.05176,.91016,.10449,1.45703,.10449,3.32812,0,7.74805-.80664,7.74805-4.31641,0-1.82031-1.58594-3.01562-5.64258-3.01562v-1.35254l4.52441-4.49902h-6.29199l-.33789,1.76953Z" fill="#e0ced4"/><path d="M266.25,56.45508l-.28516,1.92383c-.33887-.05078-.88477-.10352-1.4043-.10352-2.31445,0-4.36914,.91016-5.53906,2.9375-.62305,1.09277-.7793,1.63867-.93555,2.44531,.15625-.20898,.98828-.96289,1.89844-1.30078,.7793-.28516,1.76758-.51953,3.04199-.51953,3.27637,0,6.13574,2.13184,6.13574,5.82422,0,3.7959-2.91211,6.10938-6.47461,6.10938-4.49805,0-6.88965-3.01562-6.88965-7.69531,0-6.94336,4.31641-9.77734,8.52832-9.77734,.75391,0,1.4043,.05273,1.92383,.15625Zm-8.24219,9.04883v.57227c0,3.06836,1.14453,5.82422,4.67969,5.82422,2.41895,0,4.26465-1.58594,4.26465-4.08203,0-2.57422-1.66406-4.00488-4.26465-4.00488-2.13086,0-3.87305,.83203-4.67969,1.69043Z" fill="#e0ced4"/><path d="M286.0625,66.33594c0,4.23828-2.44531,7.43555-7.04688,7.43555s-7.04688-3.19727-7.04688-7.43555c0-4.29102,2.91211-8.37305,7.04688-8.37305,4.1084,0,7.04688,4.08203,7.04688,8.37305Zm-2.21094,0c0-2.88672-1.6377-6.37109-4.83594-6.37109-3.17188,0-4.83594,3.48438-4.83594,6.37109,0,2.9375,1.50781,5.53809,4.83594,5.53809,3.30273,0,4.83594-2.60059,4.83594-5.53809Z" fill="#e0ced4"/></g><circle cx="291.30622" cy="56.30015" r="3.06383" fill="none" stroke="#e0ced4" stroke-miterlimit="10"/><circle cx="356.29511" cy="107.57371" r="3.06383" fill="none" stroke="#e0ced4" stroke-miterlimit="10"/><circle cx="108.76155" cy="188.83971" r="3.06383" fill="none" stroke="#e0ced4" stroke-miterlimit="10"/><circle cx="155.69078" cy="97.61626" r="3.06383" fill="none" stroke="#e0ced4" stroke-miterlimit="10"/><circle cx="360.58865" cy="283.62263" r="3.06383" fill="none" stroke="#e0ced4" stroke-miterlimit="10"/><circle cx="163.02202" cy="288.40964" r="3.06383" fill="none" stroke="#e0ced4" stroke-miterlimit="10"/><circle cx="255.86077" cy="329.85278" r="3.06383" fill="none" stroke="#e0ced4" stroke-miterlimit="10"/></svg>