<?xml version="1.0" encoding="UTF-8"?><svg id="Layer_2" xmlns="http://www.w3.org/2000/svg" viewBox="0 0 108.84451 108.823"><circle cx="54.42225" cy="54.4115" r="54.43017" fill="#eb964a"/><path d="M54.42224,86.12073c0,2.34692,1.90259,4.24951,4.24951,4.24951h21.70215c-2.34692,0-4.24951,1.90259-4.24951,4.24976,0,2.34692,1.90259,4.24951,4.24951,4.24951h5.43188c13.9375-9.85693,23.04663-26.08862,23.04663-44.45801,0-15.86133-6.78882-30.13354-17.61426-40.08203h-6.48694c-2.34705,0-4.24963,1.90259-4.24963,4.24976,0,2.11206,1.54492,3.85083,3.56384,4.18042h-25.39368c-2.34692,0-4.24951,1.90259-4.24951,4.24951,0,2.34717,1.90259,4.24951,4.24951,4.24951h19.95776c-1.47461,.66699-2.50513,2.14307-2.50513,3.8667,0,2.34692,1.90259,4.24976,4.24951,4.24976h-7.68811c-2.34705,0-4.24963,1.90259-4.24963,4.24951s1.90271,4.24976,4.24951,4.24976h-10.4353c-2.34692,0-4.24951,1.90234-4.24951,4.24951,0,2.34692,1.90259,4.24951,4.24951,4.24951h12.54346c-2.34705,0-4.24963,1.90259-4.24963,4.24951,0,2.34717,1.90259,4.24976,4.24963,4.24976h-7.23413c-2.34692,0-4.24951,1.90259-4.24951,4.24976,0,2.34692,1.90259,4.24951,4.24951,4.24951h17.12769c-2.34692,0-4.24951,1.90259-4.24951,4.24951,0,2.34717,1.90259,4.24951,4.24951,4.24951h-26.01562c-2.34692,0-4.24951,1.90283-4.24951,4.24976Z" fill="#db762e"/><path d="M46.60281,62.91052H24.90066c2.34717,0,4.24976-1.90234,4.24976-4.24951s-1.90259-4.24951-4.24976-4.24951H-.00791C-.00791,77.76916,14.70864,97.68396,35.37258,105.40662h7.65161c2.34692,0,4.24976-1.90283,4.24976-4.24951,0-2.34717-1.90283-4.24951-4.24976-4.24951h-12.54321c2.34692,0,4.24951-1.90283,4.24951-4.25,0-2.34668-1.90259-4.24951-4.24951-4.24951h7.23389c2.34717,0,4.24976-1.90234,4.24976-4.24951s-1.90259-4.24951-4.24976-4.24951H20.58718c2.34717,0,4.24976-1.90283,4.24976-4.24951,0-2.34717-1.90259-4.25-4.24976-4.25h26.01562c2.34692,0,4.24976-1.90234,4.24976-4.24951,0-2.34668-1.90283-4.24951-4.24976-4.24951Z" fill="#d88044"/></svg>