<?xml version="1.0" encoding="UTF-8"?><svg id="Layer_2" xmlns="http://www.w3.org/2000/svg" viewBox="0 0 204.16147 184.3606"><g><circle cx="175.56128" cy="114.51331" r="13.38248" fill="#eb964a"/><path d="M175.56128,122.30951c0,.57703,.46778,1.04481,1.04481,1.04481h5.3358c-.57703,0-1.04481,.46778-1.04481,1.04487,0,.57703,.46778,1.04481,1.04481,1.04481h1.33551c3.42675-2.42348,5.66636-6.41428,5.66636-10.93067,0-3.89975-1.66913-7.40879-4.33073-9.85477h-1.59491c-.57706,0-1.04484,.46778-1.04484,1.04487,0,.51928,.37984,.94678,.87622,1.02782h-6.24342c-.57703,0-1.04481,.46778-1.04481,1.04481,0,.57709,.46778,1.04481,1.04481,1.04481h4.90692c-.36256,.16399-.61592,.52691-.61592,.95069,0,.57703,.46778,1.04487,1.04481,1.04487h-1.89024c-.57706,0-1.04484,.46778-1.04484,1.04481s.46781,1.04487,1.04481,1.04487h-2.56568c-.57703,0-1.04481,.46772-1.04481,1.04481,0,.57703,.46778,1.04481,1.04481,1.04481h3.084c-.57706,0-1.04484,.46778-1.04484,1.04481,0,.57709,.46778,1.04487,1.04484,1.04487h-1.77862c-.57703,0-1.04481,.46778-1.04481,1.04487,0,.57703,.46778,1.04481,1.04481,1.04481h4.2111c-.57703,0-1.04481,.46778-1.04481,1.04481,0,.57709,.46778,1.04481,1.04481,1.04481h-6.39634c-.57703,0-1.04481,.46784-1.04481,1.04487Z" fill="#db762e"/><path d="M173.63875,116.60293h-5.3358c.57709,0,1.04487-.46772,1.04487-1.04481s-.46778-1.04481-1.04487-1.04481h-6.12415c0,5.74284,3.61829,10.63919,8.69883,12.53792h1.88126c.57703,0,1.04487-.46784,1.04487-1.04481,0-.57709-.46784-1.04481-1.04487-1.04481h-3.08394c.57703,0,1.04481-.46784,1.04481-1.04493,0-.57697-.46778-1.04481-1.04481-1.04481h1.77856c.57709,0,1.04487-.46772,1.04487-1.04481s-.46778-1.04481-1.04487-1.04481h-4.2111c.57709,0,1.04487-.46784,1.04487-1.04481,0-.57709-.46778-1.04493-1.04487-1.04493h6.39634c.57703,0,1.04487-.46772,1.04487-1.04481,0-.57697-.46784-1.04481-1.04487-1.04481Z" fill="#d88044"/></g><g><circle cx="69.80497" cy="53.53696" r="53.5255" fill="#dbe0e6"/><path d="M17.18293,63.32787c11.87042-1.31085,50.85723-8.48357,90.84615-47.27351-2.1305-2.17371-4.43241-4.13375-6.86397-5.88875C65.29457,43.78393,30.68951,52.34456,16.28022,54.51107c.05114,2.93645,.3558,5.88419,.90271,8.8168Z" fill="#c7beb9"/><path d="M19.22411,71.02084c.76346,2.20012,1.67074,4.37671,2.74319,6.51417l.23864,.4696c.73994,1.43978,1.53821,2.82986,2.3869,4.17312,4.02187,.30226,51.77002,2.72398,94.99382-48.29122-.61149-1.54397-1.29021-3.07522-2.05727-4.58558-1.13775-2.24045-2.42172-4.35678-3.8166-6.3634C71.45534,72.63804,24.94121,71.37977,19.22411,71.02084Z" fill="#d6b796"/><path d="M36.19917,95.19455c2.85122,2.29735,5.91324,4.28284,9.13611,5.93629,17.22306-.32219,56.02669-5.52431,77.84974-43.55079,.28402-3.70544,.17046-7.45817-.3342-11.1989-24.01405,48.76106-74.46097,49.40833-86.65166,48.8134Z" fill="#a59d9a"/></g><polygon points="18.36258 126.9376 24.85473 138.80803 36.72516 145.30018 24.85473 151.79234 18.36258 163.66277 11.87043 151.79234 0 145.30018 11.87043 138.80803 18.36258 126.9376" fill="#e0ced4"/><polygon points="188.94376 38.31925 194.32404 48.15669 204.16147 53.53696 194.32404 58.91723 188.94376 68.75467 183.56349 58.91723 173.72605 53.53696 183.56349 48.15669 188.94376 38.31925" fill="#e0ced4"/><polygon points="138.12855 163.75836 141.77055 170.41748 148.42967 174.05948 141.77055 177.70148 138.12855 184.3606 134.48656 177.70148 127.82743 174.05948 134.48656 170.41748 138.12855 163.75836" fill="#e0ced4"/></svg>