<?xml version="1.0" encoding="UTF-8"?><svg id="Layer_2" xmlns="http://www.w3.org/2000/svg" viewBox="0 0 1600 900.78068"><polygon points="693.80389 768.65898 699.04255 778.2375 708.62107 783.47617 699.04255 788.71484 693.80389 798.29336 688.56522 788.71484 678.9867 783.47617 688.56522 778.2375 693.80389 768.65898" fill="#e0ced4"/><polygon points="346.3605 216.78909 349.87712 223.21897 356.307 226.73559 349.87712 230.25221 346.3605 236.68209 342.84388 230.25221 336.414 226.73559 342.84388 223.21897 346.3605 216.78909" fill="#e0ced4"/><polygon points="952.88764 721.98731 956.40426 728.4172 962.83414 731.93382 956.40426 735.45044 952.88764 741.88032 949.37102 735.45044 942.94113 731.93382 949.37102 728.4172 952.88764 721.98731" fill="#e0ced4"/><polygon points="98.6012 297.09972 103.13978 305.39818 111.43824 309.93676 103.13978 314.47533 98.6012 322.77379 94.06263 314.47533 85.76417 309.93676 94.06263 305.39818 98.6012 297.09972" fill="#e0ced4"/><polygon points="193.77012 212.41233 196.42086 217.25901 201.26755 219.90975 196.42086 222.56049 193.77012 227.40717 191.11938 222.56049 186.2727 219.90975 191.11938 217.25901 193.77012 212.41233" fill="#e0ced4"/><polygon points="213.53816 414.01095 216.1889 418.85763 221.03559 421.50837 216.1889 424.15911 213.53816 429.00579 210.88742 424.15911 206.04074 421.50837 210.88742 418.85763 213.53816 414.01095" fill="#e0ced4"/><polygon points="391.12766 329.71423 395.66624 338.01268 403.96469 342.55126 395.66624 347.08984 391.12766 355.38829 386.58908 347.08984 378.29062 342.55126 386.58908 338.01268 391.12766 329.71423" fill="#e0ced4"/><polygon points="662.80389 229.97249 667.34246 238.27095 675.64092 242.80953 667.34246 247.3481 662.80389 255.64656 658.26531 247.3481 649.96685 242.80953 658.26531 238.27095 662.80389 229.97249" fill="#e0ced4"/><polygon points="122.7902 613.0258 126.30682 619.45569 132.7367 622.97231 126.30682 626.48892 122.7902 632.91881 119.27358 626.48892 112.8437 622.97231 119.27358 619.45569 122.7902 613.0258" fill="#e0ced4"/><polygon points="438.63065 788.34686 442.14727 794.77674 448.57715 798.29336 442.14727 801.80998 438.63065 808.23986 435.11403 801.80998 428.68415 798.29336 435.11403 794.77674 438.63065 788.34686" fill="#e0ced4"/><polygon points="418.73765 565.4849 422.25427 571.91478 428.68415 575.4314 422.25427 578.94802 418.73765 585.37791 415.22103 578.94802 408.79114 575.4314 415.22103 571.91478 418.73765 565.4849" fill="#e0ced4"/><polygon points="195.17558 731.93382 201.66773 743.80425 213.53816 750.2964 201.66773 756.78855 195.17558 768.65898 188.68343 756.78855 176.813 750.2964 188.68343 743.80425 195.17558 731.93382" fill="#e0ced4"/><polygon points="270.06713 632.91881 271.43504 635.41994 273.93617 636.78785 271.43504 638.15576 270.06713 640.65689 268.69921 638.15576 266.19808 636.78785 268.69921 635.41994 270.06713 632.91881" fill="#e0ced4"/><polygon points="289.09132 468.53898 290.45923 471.04011 292.96036 472.40802 290.45923 473.77593 289.09132 476.27706 287.7234 473.77593 285.22227 472.40802 287.7234 471.04011 289.09132 468.53898" fill="#e0ced4"/><polygon points="1069.52987 590.81901 1073.04649 597.24889 1079.47637 600.76551 1073.04649 604.28213 1069.52987 610.71202 1066.01325 604.28213 1059.58336 600.76551 1066.01325 597.24889 1069.52987 590.81901" fill="#e0ced4"/><polygon points="1416.03657 622.97231 1419.55319 629.40219 1425.98307 632.91881 1419.55319 636.43543 1416.03657 642.86531 1412.51995 636.43543 1406.09007 632.91881 1412.51995 629.40219 1416.03657 622.97231" fill="#e0ced4"/><polygon points="1258.42029 720.16725 1264.91244 732.03768 1276.78287 738.52983 1264.91244 745.02198 1258.42029 756.89241 1251.92814 745.02198 1240.05771 738.52983 1251.92814 732.03768 1258.42029 720.16725" fill="#e0ced4"/><polygon points="1480.01507 803.48489 1486.50723 815.35532 1498.37765 821.84747 1486.50723 828.33962 1480.01507 840.21005 1473.52292 828.33962 1461.65249 821.84747 1473.52292 815.35532 1480.01507 803.48489" fill="#e0ced4"/><polygon points="1529.48657 441.09329 1537.92517 456.52265 1553.35452 464.96124 1537.92517 473.39984 1529.48657 488.82919 1521.04798 473.39984 1505.61862 464.96124 1521.04798 456.52265 1529.48657 441.09329" fill="#e0ced4"/><polygon points="952.88764 201.54717 959.37979 213.4176 971.25022 219.90975 959.37979 226.4019 952.88764 238.27233 946.39548 226.4019 934.52505 219.90975 946.39548 213.4176 952.88764 201.54717" fill="#e0ced4"/><polygon points="1310.02684 467.25999 1311.39475 469.76112 1313.89588 471.12903 1311.39475 472.49695 1310.02684 474.99808 1308.65893 472.49695 1306.1578 471.12903 1308.65893 469.76112 1310.02684 467.25999" fill="#e0ced4"/><polygon points="1466.18441 258.02195 1469.1626 319.0621 1399.63857 325.18231 1375.01333 285.84196 1466.18441 258.02195" fill="none" stroke="#e0ced4" stroke-miterlimit="10" stroke-width="2"/><polyline points="1375.01333 285.84196 1318.45558 266.74196 1272.81162 248.99145 1215.27984 270.69497" fill="none" stroke="#e0ced4" stroke-miterlimit="10" stroke-width="2"/><circle cx="1215.27984" cy="270.69497" r="4.53191" fill="#e0ced4"/><circle cx="1272.81162" cy="248.99145" r="4.53191" fill="#e0ced4"/><circle cx="1318.27713" cy="266.92041" r="4.53191" fill="#e0ced4"/><circle cx="1375.01333" cy="285.84196" r="4.53191" fill="#e0ced4"/><circle cx="1399.63857" cy="325.18231" r="4.53191" fill="#e0ced4"/><circle cx="1469.1626" cy="319.0621" r="4.53191" fill="#e0ced4"/><circle cx="1466.18441" cy="258.02195" r="4.53191" fill="#e0ced4"/></svg>