<?xml version="1.0" encoding="UTF-8"?><svg id="Layer_2" xmlns="http://www.w3.org/2000/svg" viewBox="0 0 249.61704 128.40602"><polygon points="136.93262 35.31831 142.51776 38.39263 135.6211 41.03511 136.93262 35.31831" fill="#9b6928"/><path d="M32.93052,118.79379s1.3733,1.6316-9.88451,5.51956c-1.46554,2.22996-2.52516,3.08398-5.95179,3.74824-3.42664,.66425-10.91253-.52713-15.28286-13.90155-4.37034-13.37442,3.04436-18.12693,3.04436-18.12693,0,0,2.55051-2.74022,7.39099-1.52884,3.12614-1.47083,8.56752-4.45912,10.29905-1.86598-4.25273,2.37346-9.89892,4.90837-5.65352,16.96324,4.2454,12.05486,16.03829,9.19226,16.03829,9.19226Z" fill="#806d2c"/><path d="M15.9818,106.78661c-2.37857-10.00708,3.26078-13.02596,3.26078-13.02596,0,0,20.02999-7.46224,33.20408-12.3703-.59539,15.66029,9.52326,25.56213,9.52326,25.56213,0,0-28.33035,10.2484-29.03939,12.04343,0,0-13.17146,3.68237-16.94873-12.20931Z" fill="#785424"/><path d="M71.63305,110.70066s-7.00791,.19769-10.15113-3.72194-9.47515-11.97615-9.03527-25.58837c2.31137-9.41064,2.343-8.5039,10.98075-12.0281-4.72874,4.97655-7.41733,5.9782-6.37876,14.92963,1.03857,8.95143,4.47316,20.22506,16.50331,24.16301,4.39928-.10809,5.34028-.45866,5.34028-.45866,0,0-1.91891,2.24577-7.25919,2.70444Z" fill="#5c4319"/><path d="M63.42741,69.36226l45.71491-17.26089s-6.14777,20.73745,15.45857,37.64123c-23.52516,8.76438-45.70865,18.25362-45.70865,18.25362,0,0-2.26512,2.04402-5.34649,.79101s-15.47281-5.86144-16.89362-24.46809c.44186-7.7034-.73695-7.79519,6.77527-14.95689Z" fill="#7a5e25"/><path d="M131.43937,90.17021l-.75752,.1773s-.37956,.8303-6.08097-.60491c-20.95725-16.18881-15.92747-37.14686-15.92747-37.14686,2.55908-7.15345,3.89189-7.28078,3.89189-7.28078l24.36731-9.99666c-3.675,16.63964-.75114,21.40595,2.65511,30.24073,10.6477,20.2593,18.01955,12.00173,22.06251,11.75905-2.6884,2.954-6.98458,3.74973-6.98458,3.74973l-1.22628,.50665-22,8.59574Z" fill="#a78b30"/><path d="M135.86626,40.94117L202.80175,15.29462s-4.57051,25.12519,15.59927,38.58389c-22.18086,8.26356-56.75078,23.43958-56.75078,23.43958,0,0-14.9927,8.699-22.5808-11.36064-3.53812-9.97469-4.91397-12.49401-3.20317-25.01627Z" fill="#643e17"/><path d="M202.68937,15.375c.78916-6.34901,1.66489-3.72053,11.7471-7.47669-1.21766,27.55018,15.25662,41.7733,18.3324,43.04369-2.36467,1.4602-6.24145,2.97074-9.1989,4.07255-2.90473,.01056-5.16896-1.13604-5.16896-1.13604,0,0-19.3978-8.84725-15.71164-38.5035Z" fill="#a67b2c"/><path d="M232.03512,51.14894s6.04535,2.13378,12.14738-1.21117c6.10204-3.34495,5.36393-19.29727,.38208-29.38211-4.98185-10.08484-11.60431-19.71155-18.88536-19.90764-7.28106-.19608-11.24275,7.25028-11.24275,7.25028,0,0-4.10288,26.50228,17.59864,43.25063Z" fill="#c9cda2"/><path d="M237.70162,43.01389s7.49032-19.43884-13.97696-32.68205c3.02466-1.12685,8.61536-.91337,15.8153,12.24885,4.59044,14.47885,1.6075,19.6087-1.83834,20.4332Z" fill="#090609"/><path d="M237.70162,43.01389s-11.68295,1.5204-16.34852-15.11195c-2.82177-15.17604,2.37156-17.5701,2.37156-17.5701,0,0,20.70834,10.88519,13.97696,32.68205Z" fill="#7d8e88"/></svg>