<?xml version="1.0" encoding="UTF-8"?><svg id="Layer_2" xmlns="http://www.w3.org/2000/svg" viewBox="0 0 108.87913 108.88177"><circle cx="54.44182" cy="54.43995" r="54.43017" fill="#dbe0e6"/><path d="M.93038,64.39634c12.07104-1.33301,51.7168-8.62695,92.38159-48.07251-2.1665-2.21045-4.50732-4.20361-6.97998-5.98828C49.85519,44.52207,14.66524,53.2274,.01241,55.43052c.052,2.98608,.36182,5.98364,.91797,8.96582Z" fill="#c7beb9"/><path d="M3.00606,72.21934c.77637,2.2373,1.69897,4.45068,2.78955,6.62427l.24268,.47754c.75244,1.46411,1.56421,2.87769,2.42725,4.24365,4.08984,.30737,52.64502,2.77002,96.59937-49.10742-.62183-1.57007-1.31201-3.1272-2.09204-4.66309-1.15698-2.27832-2.46265-4.43042-3.8811-6.47095C56.12008,73.86387,8.81979,72.58433,3.00606,72.21934Z" fill="#d6b796"/><path d="M20.26803,96.80161c2.89941,2.33618,6.01318,4.35522,9.29053,6.03662,17.51416-.32764,56.97363-5.61768,79.16553-44.28687,.28882-3.76807,.17334-7.58423-.33984-11.38818-24.41992,49.58521-75.71948,50.24341-88.11621,49.63843Z" fill="#a59d9a"/></svg>